<?xml version="1.0" standalone="no"?>
<!DOCTYPE svg PUBLIC "-//W3C//DTD SVG 20010904//EN"
 "http://www.w3.org/TR/2001/REC-SVG-20010904/DTD/svg10.dtd">
<svg version="1.0" xmlns="http://www.w3.org/2000/svg"
 width="192.000000pt" height="192.000000pt" viewBox="0 0 192.000000 192.000000"
 preserveAspectRatio="xMidYMid meet">

<g transform="translate(0.000000,192.000000) scale(0.100000,-0.100000)"
fill="#000000" stroke="none">
<path d="M0 960 l0 -960 960 0 960 0 0 960 0 960 -960 0 -960 0 0 -960z m1220
666 c126 -114 127 -115 164 -106 102 23 185 -65 145 -153 -14 -30 -77 -67
-115 -67 -36 0 -87 31 -110 64 -15 23 -16 68 -3 102 2 5 -50 58 -116 117
l-120 107 -190 0 -190 -1 -130 -116 c-72 -64 -131 -119 -133 -123 -2 -4 78
-80 178 -169 l181 -161 79 0 c71 0 79 2 85 21 10 29 64 59 108 59 73 0 127
-50 127 -117 0 -84 -117 -132 -199 -82 -18 11 -35 29 -38 40 -5 17 -15 19 -92
19 l-86 0 -212 191 c-117 104 -213 193 -212 197 0 4 73 71 162 149 l162 143
214 0 213 0 128 -114z m-296 -90 c19 -8 44 -28 57 -45 22 -30 25 -31 103 -31
l81 0 180 -161 c99 -88 195 -175 213 -193 l33 -32 -166 -147 -166 -147 -209 0
-210 0 -130 115 -130 116 -39 -12 c-35 -10 -45 -9 -84 10 -61 29 -85 77 -65
128 37 99 178 108 231 16 15 -26 16 -39 8 -68 -11 -40 -23 -26 154 -183 l80
-72 184 0 183 0 115 103 c63 56 126 111 140 122 l25 21 -188 167 -188 167 -66
0 c-62 0 -66 -1 -93 -35 -74 -92 -222 -52 -222 60 0 50 30 90 79 104 44 13 53
13 90 -3z m735 -844 c22 -24 23 -32 19 -130 -3 -95 -6 -106 -27 -123 -30 -24
-82 -24 -112 0 -22 17 -24 28 -27 120 -3 82 -1 107 13 127 32 49 92 52 134 6z
m-1214 3 c28 -28 32 -70 10 -102 -13 -18 -13 -22 0 -33 23 -19 20 -95 -5 -120
-16 -16 -33 -20 -85 -20 l-65 0 0 150 0 150 60 0 c51 0 65 -4 85 -25z m115
-94 c0 -124 8 -149 44 -135 14 5 16 25 16 130 l0 124 25 0 25 0 0 -130 c0
-117 -2 -132 -20 -150 -28 -28 -87 -27 -117 2 -22 20 -23 29 -23 150 l0 128
25 0 25 0 0 -119z m287 97 c13 -13 23 -33 23 -50 0 -23 -4 -28 -25 -28 -18 0
-25 5 -25 19 0 28 -26 47 -45 31 -23 -19 -22 -195 1 -204 25 -10 44 12 44 50
0 24 -5 34 -15 34 -8 0 -15 9 -15 20 0 17 7 20 40 20 l40 0 0 -62 c0 -78 -23
-108 -82 -108 -67 0 -78 22 -78 150 0 99 2 111 22 130 29 27 85 27 115 -2z
m243 -2 c0 -13 -17 -62 -39 -108 -61 -133 -60 -128 -7 -128 39 0 46 -3 46 -20
0 -18 -7 -20 -75 -20 -92 0 -91 -2 -30 138 25 56 45 107 45 112 0 6 -20 10
-45 10 -38 0 -45 3 -45 20 0 18 7 20 75 20 73 0 75 -1 75 -24z m180 4 c0 -17
-7 -20 -45 -20 l-45 0 0 -39 c0 -37 2 -40 33 -43 24 -2 33 -8 35 -25 3 -20 -1
-23 -32 -23 -36 0 -36 0 -36 -45 l0 -45 45 0 c38 0 45 -3 45 -20 0 -18 -7 -20
-75 -20 l-75 0 0 150 0 150 75 0 c68 0 75 -2 75 -20z m174 1 c25 -28 31 -83
12 -122 -15 -32 -14 -38 3 -96 l19 -63 -27 0 c-25 0 -29 5 -41 55 -10 42 -18
55 -32 55 -15 0 -18 -8 -18 -55 0 -53 -1 -55 -27 -55 l-28 0 0 150 0 150 61 0
c47 0 65 -4 78 -19z"/>
<path d="M1366 1451 c-24 -26 -17 -60 16 -84 27 -20 29 -20 63 -4 28 13 35 22
35 45 0 16 -8 36 -18 45 -25 23 -75 21 -96 -2z"/>
<path d="M1020 1137 c-19 -10 -25 -20 -25 -47 0 -69 97 -82 120 -16 8 25 6 31
-18 52 -32 27 -42 29 -77 11z"/>
<path d="M860 1492 c-74 -24 -62 -112 15 -112 39 0 65 22 65 54 0 35 -47 69
-80 58z"/>
<path d="M465 1145 c-30 -29 -31 -49 -5 -75 37 -37 120 -13 120 35 0 23 -46
65 -70 65 -11 0 -32 -11 -45 -25z"/>
<path d="M1576 672 c-3 -5 -6 -50 -7 -101 -2 -99 7 -124 39 -105 14 9 18 29
20 99 3 87 -5 115 -34 115 -7 0 -15 -4 -18 -8z"/>
<path d="M357 673 c-4 -3 -7 -21 -7 -40 0 -28 3 -33 25 -33 14 0 29 8 35 19
13 25 13 27 -6 45 -16 17 -36 21 -47 9z"/>
<path d="M357 553 c-4 -3 -7 -26 -7 -50 0 -36 3 -43 19 -43 25 0 51 26 51 50
0 33 -44 63 -63 43z"/>
<path d="M1360 629 c0 -47 2 -50 23 -47 18 2 23 10 25 42 3 38 -8 56 -35 56
-9 0 -13 -17 -13 -51z"/>
</g>
</svg>
