<?xml version="1.0" standalone="no"?>
<!DOCTYPE svg PUBLIC "-//W3C//DTD SVG 20010904//EN"
 "http://www.w3.org/TR/2001/REC-SVG-20010904/DTD/svg10.dtd">
<svg version="1.0" xmlns="http://www.w3.org/2000/svg"
 width="192.000000pt" height="192.000000pt" viewBox="0 0 192.000000 192.000000"
 preserveAspectRatio="xMidYMid meet">

<g transform="translate(0.000000,192.000000) scale(0.100000,-0.100000)"
fill="#000000" stroke="none">
<path d="M0 960 l0 -960 960 0 960 0 0 960 0 960 -960 0 -960 0 0 -960z m1194
744 c272 -145 417 -226 414 -229 -2 -1 -44 -25 -94 -52 -72 -39 -93 -47 -100
-37 -16 24 -378 213 -385 202 -4 -6 -92 -56 -195 -112 -179 -96 -189 -101
-206 -84 -10 10 -49 33 -88 53 -38 19 -70 39 -70 43 0 8 538 301 554 302 4 0
81 -39 170 -86z m-134 -334 c11 -7 5 -8 -20 -4 -43 8 -51 14 -19 14 13 0 31
-5 39 -10z m69 -36 c14 -12 -19 -1 -35 12 -18 14 -18 14 6 3 14 -6 27 -13 29
-15z m44 -21 c3 -5 -41 -7 -96 -5 -184 4 -204 8 -55 10 81 1 149 -1 151 -5z
m47 -34 c0 -5 -87 -9 -195 -9 -107 0 -195 4 -195 9 0 4 83 8 184 7 101 -1 182
2 180 6 -3 4 2 5 10 2 9 -3 16 -10 16 -15z m-92 -26 c-53 -2 -143 -2 -200 0
-57 1 -13 3 97 3 110 0 156 -2 103 -3z m92 -100 c0 -67 -3 -83 -15 -83 -8 0
-15 -4 -15 -10 0 -6 9 -6 25 0 17 6 25 6 25 -1 0 -6 5 -7 10 -4 6 3 10 1 10
-5 0 -6 5 -8 10 -5 6 3 10 1 10 -6 0 -7 3 -9 7 -6 3 4 12 -1 20 -11 8 -9 12
-11 8 -5 -4 9 -1 11 9 7 9 -3 13 -10 10 -15 -5 -8 9 -13 29 -10 4 0 7 -4 7
-10 0 -5 5 -7 10 -4 6 3 10 1 10 -5 0 -6 4 -9 9 -6 5 4 8 -1 7 -10 -3 -19
-367 -218 -375 -206 -3 5 -88 53 -188 106 -179 95 -211 116 -178 116 9 0 13 5
10 11 -4 6 -1 10 6 8 27 -3 40 1 34 11 -4 6 1 7 11 3 12 -4 15 -3 10 5 -5 8
-2 10 8 6 9 -4 18 1 22 10 3 9 10 13 15 10 5 -3 9 -1 9 4 0 6 16 9 35 8 19 -1
35 2 35 6 0 5 -10 8 -22 8 -14 0 -19 3 -12 10 5 5 93 11 199 13 l190 2 -200 4
c-134 3 -182 6 -145 11 l55 7 -47 1 c-35 2 -48 6 -48 17 0 13 29 15 193 17
l192 2 -195 6 -195 6 193 2 c120 1 192 6 192 12 0 6 -70 10 -190 10 -182 0
-190 1 -190 20 0 18 8 20 128 22 70 2 157 3 195 3 l67 0 0 -82z m-783 -49 c-3
-3 -12 -4 -19 -1 -8 3 -5 6 6 6 11 1 17 -2 13 -5z m1200 0 c-3 -3 -12 -4 -19
-1 -8 3 -5 6 6 6 11 1 17 -2 13 -5z m-1214 -111 c-13 -2 -33 -2 -45 0 -13 2
-3 4 22 4 25 0 35 -2 23 -4z m1235 0 c-10 -2 -26 -2 -35 0 -10 3 -2 5 17 5 19
0 27 -2 18 -5z m-1240 -60 c-15 -2 -42 -2 -60 0 -18 2 -6 4 27 4 33 0 48 -2
33 -4z m1285 0 c-18 -2 -48 -2 -65 0 -18 2 -4 4 32 4 36 0 50 -2 33 -4z
m-1255 -90 c-21 -2 -57 -2 -80 0 -24 2 -7 4 37 4 44 0 63 -2 43 -4z m1240 0
c-21 -2 -57 -2 -80 0 -24 2 -7 4 37 4 44 0 63 -2 43 -4z m-1152 -29 c18 -14
18 -14 -6 -3 -31 14 -36 19 -24 19 6 0 19 -7 30 -16z m189 -99 c76 -41 141
-77 143 -80 3 -3 -66 -4 -154 -3 -148 1 -153 2 -69 8 50 4 104 12 120 18 23 8
-8 11 -140 13 l-170 3 155 6 155 6 -120 4 c-115 4 -117 4 -35 7 117 5 129 23
15 23 -97 0 -107 4 -31 13 51 6 75 17 38 17 -11 0 -25 7 -29 15 -7 11 -36 15
-133 18 l-125 3 121 2 120 2 139 -75z m893 68 c-32 -2 -84 -2 -115 0 -32 2 -6
3 57 3 63 0 89 -1 58 -3z m-163 -23 c4 -6 -7 -10 -27 -10 -25 0 -29 3 -18 10
19 13 37 13 45 0z m25 -29 c38 -7 30 -9 -50 -10 -65 0 -90 2 -80 9 18 11 67
12 130 1z m35 -36 c6 -2 -46 -3 -115 -4 -70 0 -116 4 -105 8 18 7 197 4 220
-4z m-95 -25 l-175 -5 70 -13 c39 -7 97 -14 130 -15 33 -2 -16 -4 -110 -5
l-170 -2 45 25 c43 23 52 24 215 22 l170 -1 -175 -6z m-410 -109 c10 -8 -43
-10 -175 -9 l-190 2 135 6 c141 6 139 7 -55 17 -66 3 -122 7 -124 9 -2 2 72 4
165 4 113 0 164 4 154 10 -8 5 -116 11 -240 12 l-225 2 215 6 215 5 55 -27
c30 -15 62 -32 70 -37z m495 52 c-198 -7 -383 -7 -378 0 2 4 106 6 231 5 125
-1 191 -3 147 -5z m-56 -27 c-2 -2 -56 -6 -119 -10 -63 -3 -131 -7 -150 -8
-19 -1 24 -5 95 -8 l130 -6 -187 -2 c-104 -1 -188 0 -188 3 0 2 12 11 28 19
21 12 67 15 211 16 101 0 182 -2 180 -4z m-929 -57 c18 -1 20 -2 7 -6 -13 -3
-16 -10 -11 -21 10 -22 7 -71 -5 -86 -6 -7 -4 -18 5 -30 21 -29 18 -82 -6
-106 -16 -16 -33 -20 -80 -20 l-60 0 0 141 0 141 63 -6 c34 -3 73 -6 87 -7z
m100 1 c23 -7 23 -8 3 -9 -20 -1 -21 -6 -22 -100 -1 -75 2 -101 13 -111 29
-23 36 0 36 116 l0 114 25 0 25 0 0 -120 c0 -107 -2 -122 -20 -140 -30 -30
-83 -27 -109 6 -18 23 -21 41 -21 140 0 112 0 114 23 113 12 -1 33 -5 47 -9z
m235 -1 c6 0 57 3 114 7 l104 7 -5 -36 c-3 -31 -1 -37 14 -37 13 0 18 8 18 25
0 14 -6 25 -12 25 -9 0 -8 4 2 10 8 5 43 10 78 10 60 0 62 -1 62 -25 0 -22 -4
-25 -40 -25 -22 0 -40 -4 -40 -10 0 -5 23 -10 51 -10 l51 0 -4 33 -3 32 54 3
c29 2 61 0 70 -4 9 -3 36 -5 61 -4 87 4 172 1 155 -6 -6 -2 -9 -47 -7 -115 4
-129 -5 -149 -68 -149 -58 0 -73 24 -75 123 0 45 3 94 6 110 7 24 5 27 -19 27
-26 0 -27 -1 -23 -51 2 -29 -2 -62 -9 -74 -10 -19 -9 -32 4 -71 21 -62 21 -64
-9 -64 -21 0 -27 7 -38 47 -23 77 -44 63 -37 -24 1 -19 -4 -23 -29 -23 l-31 0
0 100 0 100 -50 0 c-43 0 -50 -3 -50 -20 0 -16 7 -20 30 -20 23 0 30 -5 30
-19 0 -11 8 -22 18 -24 9 -3 -4 -2 -30 0 l-48 6 0 -42 0 -41 40 0 c33 0 40 -3
40 -20 0 -18 -7 -20 -65 -20 l-65 0 0 55 0 55 -37 2 -38 1 38 4 c36 4 37 5 37
44 0 34 -3 39 -22 39 -22 0 -28 -10 -86 -152 -2 -4 15 -8 37 -8 34 0 41 -3 41
-20 0 -18 -7 -20 -70 -20 -82 0 -83 1 -44 93 50 118 52 107 -16 107 -71 0 -80
-17 -12 -23 26 -2 14 -3 -27 -1 -41 2 -77 8 -80 13 -3 4 -13 11 -21 14 -10 3
-7 6 8 6 28 1 19 21 -9 21 -17 0 -19 -8 -19 -89 0 -90 9 -113 34 -92 14 12 10
71 -5 71 -5 0 -9 9 -9 20 0 17 7 20 40 20 l40 0 0 -54 c0 -71 -26 -106 -79
-106 -64 0 -73 20 -69 149 2 68 -1 112 -7 114 -5 2 -3 3 6 2 9 -1 23 2 30 7 8
5 30 6 49 3 19 -3 40 -5 45 -6z m108 -126 c-7 -2 -19 -2 -25 0 -7 3 -2 5 12 5
14 0 19 -2 13 -5z m114 1 c-3 -3 -12 -4 -19 -1 -8 3 -5 6 6 6 11 1 17 -2 13
-5z m-139 -31 c-10 -2 -26 -2 -35 0 -10 3 -2 5 17 5 19 0 27 -2 18 -5z m18
-180 c13 -17 13 -17 14 0 0 21 30 23 30 2 0 -8 3 -14 8 -14 34 6 46 -37 17
-61 -13 -11 -14 -8 -9 19 4 20 3 31 -5 31 -6 0 -11 -12 -11 -26 0 -31 -23 -28
-28 4 -5 30 -22 28 -22 -3 0 -36 -17 -31 -23 8 -4 32 0 57 10 57 3 0 12 -8 19
-17z m214 2 c0 -8 6 -12 14 -9 8 3 21 -4 29 -16 l14 -21 8 23 c7 21 8 20 12
-10 4 -34 23 -35 23 -1 0 10 5 19 10 19 6 0 10 -13 10 -28 0 -24 -4 -28 -27
-26 -16 1 -30 3 -33 4 -3 1 -9 1 -15 0 -5 -2 -22 -4 -37 -5 -27 -2 -28 0 -28
42 0 23 5 43 10 43 6 0 10 -7 10 -15z m-480 -2 c0 -3 -8 -15 -17 -26 -13 -15
-15 -21 -5 -24 23 -9 12 -23 -18 -23 -34 0 -38 14 -13 42 15 17 15 18 0 18
-10 0 -17 5 -17 10 0 6 16 10 35 10 19 0 35 -3 35 -7z m48 -11 c12 -8 12 -45
0 -58 -4 -3 -16 -3 -27 1 -34 10 -27 60 9 64 3 0 11 -3 18 -7z m93 -2 c36 20
71 -17 43 -45 -22 -22 -41 -19 -60 10 -21 32 -34 32 -34 0 0 -14 -4 -25 -10
-25 -5 0 -10 13 -10 29 0 30 25 46 44 30 5 -5 17 -4 27 1z m267 2 c12 -8 12
-45 0 -58 -4 -3 -16 -3 -27 1 -34 10 -27 60 9 64 3 0 11 -3 18 -7z m263 -2 c6
0 9 -17 7 -37 -2 -31 -7 -39 -27 -41 -13 -2 -28 1 -34 7 -9 9 -5 11 13 9 19
-2 24 2 24 21 0 14 -5 26 -12 29 -16 5 -16 -20 1 -37 10 -11 9 -13 -2 -9 -8 2
-19 11 -25 20 -12 20 10 52 31 43 8 -3 19 -5 24 -5z m69 -15 c5 -14 14 -25 20
-25 5 0 10 -5 10 -12 0 -9 -3 -9 -11 -1 -9 9 -16 9 -30 0 -14 -9 -21 -8 -31 2
-11 11 -9 12 12 7 25 -6 25 -6 3 5 -23 12 -29 29 -16 42 14 14 34 6 43 -18z
m60 -35 c0 -5 -4 -10 -10 -10 -5 0 -10 5 -10 10 0 6 5 10 10 10 6 0 10 -4 10
-10z m30 0 c0 -5 -4 -10 -10 -10 -5 0 -10 5 -10 10 0 6 5 10 10 10 6 0 10 -4
10 -10z"/>
<path d="M1033 1113 c15 -2 39 -2 55 0 15 2 2 4 -28 4 -30 0 -43 -2 -27 -4z"/>
<path d="M1143 1113 c15 -2 37 -2 50 0 12 2 0 4 -28 4 -27 0 -38 -2 -22 -4z"/>
<path d="M890 1036 c0 -2 7 -7 16 -10 8 -3 12 -2 9 4 -6 10 -25 14 -25 6z"/>
<path d="M1135 1030 c-3 -6 1 -7 9 -4 18 7 21 14 7 14 -6 0 -13 -4 -16 -10z"/>
<path d="M938 1008 c5 -5 16 -8 23 -6 8 3 3 7 -10 11 -17 4 -21 3 -13 -5z"/>
<path d="M1095 1010 c-16 -7 -17 -9 -3 -9 9 -1 20 4 23 9 7 11 7 11 -20 0z"/>
<path d="M999 976 c19 -10 31 -11 48 -3 13 6 21 12 19 14 -2 3 -13 0 -23 -5
-12 -7 -25 -7 -34 -1 -7 5 -18 9 -24 8 -5 0 1 -6 14 -13z"/>
<path d="M958 563 c7 -3 16 -2 19 1 4 3 -2 6 -13 5 -11 0 -14 -3 -6 -6z"/>
<path d="M1078 563 c7 -3 16 -2 19 1 4 3 -2 6 -13 5 -11 0 -14 -3 -6 -6z"/>
<path d="M430 460 c0 -25 4 -31 18 -28 11 2 17 12 17 28 0 16 -6 26 -17 28
-14 3 -18 -3 -18 -28z"/>
<path d="M430 340 c0 -42 9 -49 33 -26 20 20 10 66 -14 66 -15 0 -19 -7 -19
-40z"/>
<path d="M872 495 c10 -23 17 -25 75 -25 35 0 63 4 63 10 0 6 -18 10 -40 10
-29 0 -40 4 -40 15 0 10 -11 15 -35 15 -33 0 -34 -1 -23 -25z"/>
<path d="M1310 481 c0 -5 8 -12 18 -14 14 -4 15 -5 1 -6 -9 0 -19 -12 -22 -27
-4 -21 -1 -25 17 -22 16 2 22 11 24 41 3 32 0 37 -17 37 -12 0 -21 -4 -21 -9z"/>
<path d="M1492 398 c2 -75 6 -93 18 -93 12 0 16 18 18 93 3 87 2 92 -18 92
-20 0 -21 -5 -18 -92z"/>
<path d="M1177 164 c-9 -9 4 -35 14 -28 5 3 9 12 9 20 0 14 -12 19 -23 8z"/>
<path d="M710 160 c0 -5 5 -10 10 -10 6 0 10 5 10 10 0 6 -4 10 -10 10 -5 0
-10 -4 -10 -10z"/>
<path d="M837 164 c-9 -9 4 -35 14 -28 5 3 9 12 9 20 0 14 -12 19 -23 8z"/>
<path d="M1070 160 c0 -5 5 -10 10 -10 6 0 10 5 10 10 0 6 -4 10 -10 10 -5 0
-10 -4 -10 -10z"/>
</g>
</svg>
