<?xml version="1.0" standalone="no"?>
<!DOCTYPE svg PUBLIC "-//W3C//DTD SVG 20010904//EN"
 "http://www.w3.org/TR/2001/REC-SVG-20010904/DTD/svg10.dtd">
<svg version="1.0" xmlns="http://www.w3.org/2000/svg"
 width="192.000000pt" height="192.000000pt" viewBox="0 0 192.000000 192.000000"
 preserveAspectRatio="xMidYMid meet">

<g transform="translate(0.000000,192.000000) scale(0.100000,-0.100000)"
fill="#000000" stroke="none">
<path d="M0 960 l0 -960 960 0 960 0 0 960 0 960 -960 0 -960 0 0 -960z m690
-569 c0 -6 -5 -13 -12 -17 -6 -4 -8 -3 -4 4 4 6 -5 12 -21 15 -26 4 -26 4 5 6
17 0 32 -3 32 -8z m545 -26 c15 0 20 -7 20 -25 0 -20 -5 -25 -27 -26 -27 -1
-28 1 -27 45 1 29 3 39 7 26 4 -11 16 -20 27 -20z m-479 -13 c1 -7 0 -8 -3 -2
-7 15 -30 12 -37 -5 -4 -10 2 -19 17 -25 13 -5 16 -9 7 -9 -26 -1 -40 19 -29
41 11 21 41 21 45 0z m31 -29 c-3 -10 -5 -2 -5 17 0 19 2 27 5 18 2 -10 2 -26
0 -35z m78 17 c0 -19 -6 -25 -23 -26 -18 -1 -19 -1 -2 3 12 2 20 13 20 24 0
24 -26 25 -39 2 -6 -10 -11 -13 -11 -7 0 16 23 35 40 32 9 -2 15 -14 15 -28z
m165 15 c17 -20 5 -45 -20 -45 -11 0 -23 7 -26 15 -6 15 11 45 26 45 4 0 13
-7 20 -15z m54 -37 c7 -5 5 -8 -6 -8 -14 0 -18 8 -17 33 2 27 2 28 6 7 3 -14
10 -28 17 -32z m23 5 c-3 -10 -5 -2 -5 17 0 19 2 27 5 18 2 -10 2 -26 0 -35z
m30 0 c-3 -10 -5 -2 -5 17 0 19 2 27 5 18 2 -10 2 -26 0 -35z m168 -3 c8 0 16
12 18 28 4 25 4 24 6 -6 1 -29 -2 -33 -21 -30 -17 2 -23 10 -24 28 -1 22 0 22
3 3 2 -13 10 -23 18 -23z m105 15 c0 -34 -16 -55 -39 -54 -10 0 -7 4 7 10 18
7 23 15 20 36 -4 33 -38 46 -38 14 0 -11 8 -22 18 -24 16 -4 16 -5 -1 -6 -10
0 -20 6 -23 14 -10 26 4 45 31 43 21 -2 25 -7 25 -33z m44 28 c-5 -5 -12 -12
-16 -18 -4 -6 -8 -2 -8 8 0 9 7 17 17 17 9 0 12 -3 7 -7z m-500 -37 c-3 -9
-10 -13 -15 -10 -5 3 -3 11 4 19 15 16 19 13 11 -9z m511 -5 c-3 -6 -14 -10
-23 -10 -15 1 -15 2 1 6 9 2 17 9 17 15 0 6 3 9 6 5 3 -3 3 -10 -1 -16z m-787
-8 c-10 -2 -26 -2 -35 0 -10 3 -2 5 17 5 19 0 27 -2 18 -5z"/>
<path d="M1215 350 c-8 -14 3 -30 21 -30 8 0 14 9 14 20 0 21 -24 28 -35 10z"/>
<path d="M997 354 c-14 -15 -6 -34 14 -34 14 0 19 5 17 17 -3 18 -20 27 -31
17z"/>
</g>
</svg>
